<svg width="350" height="350" viewBox="0 0 350 350" fill="none" xmlns="http://www.w3.org/2000/svg">
<path opacity="0.06" d="M174.295 323.25C230.246 323.25 275.604 315.219 275.604 305.312C275.604 295.405 230.246 287.373 174.295 287.373C118.344 287.373 72.9863 295.405 72.9863 305.312C72.9863 315.219 118.344 323.25 174.295 323.25Z" fill="black"/>
<path d="M135.699 313.297C133.964 313.297 132.216 312.791 129.798 312.093L128.998 311.862C122.381 309.968 116.196 306.075 110.739 302.64C110.025 302.19 109.317 301.745 108.615 301.307C108.23 301.203 107.849 301.071 107.474 300.91C99.0082 297.274 93.5293 295.789 90.423 295.183C88.0131 294.712 86.0043 293.087 85.0465 290.834C84.087 288.574 84.3129 285.991 85.6507 283.924C85.7387 283.789 85.8233 283.651 85.9045 283.509C84.1394 280.546 82.9734 277.244 82.4285 273.658C80.6931 262.237 85.5626 251.401 94.9702 245.191C94.9466 244.331 94.9169 243.446 94.8873 242.538C94.6436 235.184 94.3737 227.038 96.7234 219.754C94.4608 218.567 92.331 217.251 90.3561 215.82C74.8097 204.554 66.6459 184.342 70.0432 165.526C70.5492 162.725 71.3159 159.876 72.3253 157.036C72.0148 155.091 71.9708 153.134 72.1959 151.2C72.7374 146.533 74.8426 142.144 78.2366 138.487C77.651 136.86 77.2677 134.937 77.0799 132.702C76.6467 127.522 77.2356 122.212 78.8331 116.862C70.853 112.516 63.2156 106.018 60.4986 93.6206C58.12 82.7643 59.1896 71.8396 63.5092 62.8585C69.676 50.0434 84.4296 41.433 100.223 41.433C105.702 41.433 110.855 42.472 115.539 44.5214C116.963 45.1451 118.415 45.8617 119.976 46.7147C120.582 47.0456 121.152 47.4517 121.756 47.8815C121.842 47.9424 121.942 48.0134 122.047 48.0879C122.322 47.9272 122.611 47.7638 122.918 47.6023C125.822 46.0817 129.043 44.7338 132.768 43.4807C142.477 40.2137 152.746 38.6762 161.609 37.4907C167.77 36.6674 173.803 36.2494 179.54 36.2494C194.52 36.2494 208.379 39.0028 221.911 44.6661C222.923 45.09 223.961 45.6883 224.964 46.2662C225.667 46.6715 226.768 47.3061 227.414 47.576C227.883 47.3653 228.655 46.8847 229.151 46.5759C229.923 46.0952 230.721 45.5985 231.613 45.1772C235.961 43.1202 240.248 41.9668 244.718 41.6495C245.782 41.5742 246.861 41.5361 247.928 41.5361C257.816 41.5361 267.595 44.8234 275.462 50.7931C275.51 50.8312 275.557 50.8676 275.602 50.9039C275.702 50.9775 275.81 51.0604 275.922 51.1543C285.565 59.1869 290.481 72.7415 289.057 87.4012C288.262 95.6055 285.922 102.31 282.103 107.332C278.52 112.042 273.75 115.001 268.882 117.408C269.239 123.843 268.329 129.63 266.085 135.217C266.802 136.224 267.474 137.192 268.114 138.132C275.784 143.931 279.895 152.059 279.253 160.164C280.966 165.859 281.643 171.366 281.323 176.964C281.275 177.78 281.208 178.599 281.119 179.421C281.537 179.404 281.95 179.395 282.36 179.395C286.332 179.395 290.005 180.221 293.278 181.853C301.423 185.913 307.242 194.893 308.466 205.288C309.53 214.333 307.837 224.833 303.288 237.388C299.6 247.57 294.327 256.311 287.168 264.109C287.14 264.14 287.111 264.17 287.082 264.201C281.039 270.472 272.789 275.658 263.631 278.976C262.908 280.968 261.954 282.853 260.776 284.615C261.654 286.504 261.702 288.679 260.879 290.617C259.922 292.869 257.913 294.496 255.505 294.966C252.398 295.572 246.919 297.056 238.452 300.692C238.077 300.854 237.697 300.987 237.311 301.091C236.609 301.527 235.902 301.972 235.189 302.422C229.731 305.857 223.545 309.751 216.926 311.646L216.125 311.877C213.708 312.575 211.962 313.08 210.227 313.08C210.227 313.08 210.227 313.08 210.226 313.08C207.237 313.08 205.594 311.51 204.88 310.575C203.318 308.528 203.377 306.104 203.711 304.258C201.011 304.422 198.192 304.503 195.219 304.503C188.071 304.503 180.88 304.036 173.927 303.585C171.833 303.45 169.74 303.313 167.647 303.19C163.71 302.958 160.042 302.845 156.433 302.845C151.421 302.845 146.653 303.066 142.011 303.517C142.471 305.414 142.896 308.367 141.046 310.792C140.332 311.727 138.688 313.297 135.699 313.297Z" fill="url(#paint0_linear_1011_21483)"/>
<path d="M276.478 242.699C289.391 227.757 295.291 208.763 293.093 189.466C298.279 193.523 301.435 200.431 301.899 207.177C302.53 216.348 299.705 227.834 296.448 236.431C292.979 245.59 288.868 252.428 282.182 259.586C270.864 271.702 241.53 282.162 226.188 271.944C223.702 270.289 222.159 268.349 221.282 266.232C241.276 265.731 258.134 263.923 276.478 242.699Z" fill="#83A5F2"/>
<path d="M276.42 244.959C258.035 265.897 241.276 265.731 221.282 266.232C218.917 260.521 221.451 253.508 223.758 247.233C228.292 234.9 233.532 222.622 241.238 211.899C249.443 200.481 260.791 190.846 274.331 187.057C278.368 185.927 282.674 185.332 286.746 186.328C289.107 186.907 291.228 188.007 293.092 189.465C295.29 208.763 289.45 230.119 276.42 244.959Z" fill="#B6D4FF"/>
<path d="M283.101 260.505C289.833 253.172 294.773 244.889 298.163 235.529C301.507 226.297 304.229 215.698 303.065 205.807C302.151 198.042 297.939 190.015 290.722 186.418C282.141 182.141 271.56 185.767 263.647 189.966C245.231 199.738 234.08 218.285 226.355 236.967C223.183 244.638 218.288 254.09 219.104 262.658C219.828 270.267 226.414 274.694 233.326 276.402C249.978 280.517 271.419 272.631 283.101 260.505C284.262 259.3 282.426 257.459 281.263 258.667C271.64 268.655 256.108 274.657 242.341 274.78C235.277 274.843 225.171 272.942 222.335 265.386C219.727 258.441 224.15 249.728 226.612 243.314C233.031 226.589 241.436 209.853 255.638 198.385C262.752 192.64 271.99 187.571 281.309 187.159C291.122 186.724 297.926 194.32 300.012 203.341C302.23 212.936 299.41 223.787 296.333 232.897C293.06 242.588 288.186 251.126 281.263 258.667C280.133 259.897 281.967 261.74 283.101 260.505Z" fill="#462A3A"/>
<path d="M114.32 278.419C114.032 278.453 113.731 278.5 113.5 278.675C113.19 278.911 113.077 279.319 112.983 279.698C112.7 280.842 112.415 282.023 112.596 283.188C112.827 284.68 113.81 285.972 115.006 286.893C116.202 287.814 117.608 288.415 118.996 289.006C121.804 290.202 124.612 291.397 127.419 292.593C128.305 292.97 129.314 293.349 130.199 292.97C131.22 292.532 131.597 291.298 131.804 290.206C131.925 289.569 132.028 288.905 131.858 288.279C131.365 286.463 129.084 284.789 127.846 283.457C126.955 282.497 126.108 281.447 125.005 280.72C121.767 278.588 118.035 278.419 114.32 278.419ZM227.944 291.334C229.47 289.689 230.666 287.689 231.105 285.489C231.543 283.289 231.168 280.883 229.843 279.072C229.187 278.177 228.208 277.402 227.098 277.423C225.436 277.453 224.37 279.12 223.441 280.498C221.084 283.992 217.681 286.772 213.787 288.385C212.857 288.77 211.885 289.098 211.08 289.702C209.738 290.706 208.303 293.748 209.69 295.247C210.774 296.418 214.061 296.465 215.521 296.488C220.126 296.559 224.794 294.729 227.944 291.334Z" fill="#83A5F2"/>
<path d="M225.428 281.283C221.437 286.955 216.183 289.387 212.665 290.835C214.029 287.057 217.854 282.36 220.815 281.441C222.578 280.893 224.203 280.94 225.502 281.172C225.484 281.209 225.456 281.246 225.428 281.283ZM133.81 289.749C133.411 289.619 133.012 289.48 132.603 289.331C128.454 287.781 124.528 284.913 121.399 281.181C122.699 280.94 124.333 280.884 126.106 281.441C128.788 282.276 132.186 286.212 133.81 289.749Z" fill="#EBD947"/>
<path d="M244.392 248.302C245.451 248.692 246.49 249.166 247.428 249.723C249.284 250.818 252.218 252.6 254.696 256.072C258.14 260.88 258.465 265.846 258.567 267.675C258.687 269.903 258.706 276.289 254.547 282.063C252.116 285.432 249.108 287.409 248.05 288.096C246.351 289.192 244.309 290.38 241.088 291.958C238.22 293.369 236.623 294 235.11 294.78C235.398 294.009 235.602 293.174 235.667 292.273C235.713 291.614 235.797 290.259 235.203 288.709C234.553 287.01 233.402 286.026 231.954 284.69C231.063 283.854 229.94 282.824 228.241 282.063C227.814 281.868 226.83 281.422 225.503 281.172C230.209 274.423 230.209 267.257 230.07 264.574C230.357 264.992 230.924 265.679 231.768 265.818C233.077 266.023 234.21 264.807 234.711 264.268C239.111 259.534 237.913 248.367 237.69 246.566C239.631 246.901 242.081 247.43 244.392 248.302ZM102.12 248.46C105.359 247.17 108.952 246.576 111.068 246.279C111.031 248.247 111.133 249.945 111.254 251.273C111.254 251.412 111.319 253.101 112.804 254.057C114.233 254.986 115.746 254.429 115.895 254.364C114.373 259.154 114.419 263.089 114.66 265.503C115.236 271.406 117.789 276.865 121.4 281.181C120.081 281.422 119.107 281.868 118.68 282.063C116.981 282.824 115.858 283.854 114.967 284.69C113.528 286.026 112.368 287.01 111.718 288.709C111.124 290.259 111.207 291.615 111.254 292.274C111.319 293.174 111.514 294.009 111.792 294.771C110.288 293.991 108.692 293.36 105.842 291.958C102.612 290.38 100.57 289.192 98.8803 288.096C97.8128 287.41 94.8145 285.432 92.3825 282.063C88.2147 276.289 88.2333 269.903 88.3539 267.675C88.456 265.846 88.7902 260.88 92.2247 256.072C94.7032 252.6 97.6364 250.818 99.4929 249.723C100.31 249.24 101.201 248.822 102.12 248.46Z" fill="#83A5F2"/>
<path d="M242.225 215.991C244.406 219.416 249.198 229.72 248.001 233.609C247.175 233.21 246.809 243.312 246.846 249.494C244.534 248.622 239.63 246.901 237.69 246.567C237.663 246.409 237.653 246.325 237.653 246.325C235.769 233.321 225.489 222.632 219.697 214.547L126.106 213.521L126.068 211.349L233.996 209.687C235.583 213.428 240.043 212.566 242.225 215.991Z" fill="#83A5F2"/>
<path d="M126.069 211.349L126.106 213.521C123.043 216.259 117.195 222.219 113.732 231.78C111.737 237.293 111.133 242.343 111.068 246.279C108.952 246.576 105.359 247.17 102.12 248.46C102.185 243.624 99.079 237.18 100.991 232.743C101.632 231.248 103.587 219.316 105.035 216.569C106.492 213.821 110.948 213.874 113.008 211.553L126.069 211.349Z" fill="#83A5F2"/>
<path d="M112.646 253.933C112.342 253.604 112.044 253.267 111.745 252.929C111.948 253.282 112.239 253.632 112.646 253.933Z" fill="#EBD947"/>
<path d="M186.448 234.646C194.373 231.045 200.05 222.965 203.501 213.889L144.52 213.608C150.938 230.189 169.542 242.655 186.448 234.646Z" fill="#FCE6F4"/>
<path d="M237.69 246.567C237.663 246.409 237.653 246.325 237.653 246.325C235.769 233.321 225.489 222.632 219.697 214.547L203.501 213.889C200.05 222.965 194.372 231.045 186.448 234.646C169.542 242.655 150.938 230.189 144.519 213.608L126.106 213.521C123.043 216.259 117.194 222.218 113.732 231.78C111.736 237.293 111.133 242.343 111.068 246.279C111.031 248.247 111.133 249.945 111.254 251.273C111.254 251.365 111.292 252.139 111.745 252.929C112.043 253.267 112.342 253.604 112.645 253.933C112.7 253.973 112.744 254.019 112.804 254.058C114.233 254.986 115.746 254.429 115.895 254.364C115.648 255.141 115.455 255.887 115.284 256.617C141.382 281.528 182.479 275.135 215.223 271.776C220.424 271.256 225.334 269.643 230.075 267.386C230.13 266.216 230.105 265.252 230.07 264.575C230.357 264.992 230.923 265.679 231.768 265.818C233.077 266.023 234.21 264.807 234.711 264.268C239.111 259.534 237.913 248.367 237.69 246.567Z" fill="url(#paint1_linear_1011_21483)"/>
<path d="M215.224 271.776C182.479 275.135 141.382 281.528 115.285 256.617C114.407 260.382 114.459 263.481 114.661 265.503C115.236 271.407 117.789 276.865 121.4 281.181C122.699 280.94 124.83 286.484 126.603 287.041C129.286 287.876 132.186 286.212 133.811 289.749C135.964 290.417 137.904 290.705 139.102 290.881C143.678 291.54 146.89 291.141 154.26 290.259C162.958 289.21 167.33 288.691 168.184 288.709C171.293 288.784 175.248 289.591 183.036 291.188C192.596 293.146 192.225 293.453 195.103 293.666C197.6 293.842 204.237 294.251 211.811 291.188C212.081 291.076 212.368 290.965 212.665 290.835C214.03 287.057 216.643 287.96 219.604 287.041C221.368 286.493 224.204 280.94 225.503 281.172C229.021 276.127 229.909 270.85 230.075 267.386C225.334 269.643 220.425 271.256 215.224 271.776Z" fill="#B6D4FF"/>
<path d="M212.665 290.835C212.284 291.884 212.089 292.858 212.154 293.666C212.015 294.019 211.57 295.235 211.69 296.599C211.7 296.673 211.709 296.757 211.718 296.831C187.584 301.138 162.112 293.527 137.634 297.184C136.762 297.314 132.818 297.705 131.946 297.872C132.067 297.519 130.907 296.049 130.935 295.706C131.056 294.341 128.619 292.015 128.48 291.662C128.573 290.585 126.269 287.343 125.592 285.886C127.745 286.554 137.904 290.705 139.101 290.881C143.677 291.54 146.889 291.141 154.259 290.259C162.957 289.21 167.329 288.69 168.183 288.709C171.293 288.783 175.247 289.591 183.035 291.187C192.596 293.146 192.225 293.452 195.102 293.666C197.599 293.842 204.236 294.25 211.811 291.187C212.08 291.076 212.368 290.965 212.665 290.835Z" fill="#83A5F2"/>
<path d="M212.327 289.576C206.381 292.001 199.637 293.25 193.234 292.112C186.535 290.922 179.966 289.025 173.234 287.951C160.148 285.862 147.26 292.144 134.154 288.476C132.54 288.024 131.851 290.531 133.462 290.982C147.217 294.831 160.81 288.307 174.56 290.809C188.135 293.278 199.499 297.596 213.018 292.082C214.547 291.459 213.878 288.943 212.327 289.576ZM109.773 246.267C109.765 250.277 110.064 257.528 116.246 255.61C115.713 255.077 115.18 254.544 114.647 254.011C111.725 264.115 113.951 273.906 120.511 282.091C121.557 283.396 123.386 281.547 122.349 280.253C116.377 272.801 114.511 263.84 117.154 254.702C117.423 253.77 116.502 252.81 115.555 253.104C114.118 253.549 112.767 251.157 112.472 250.199C112.121 249.058 112.37 247.424 112.372 246.267C112.375 244.594 109.776 244.591 109.773 246.267Z" fill="#462A3A"/>
<path d="M120.511 282.091C124.012 286.144 128.344 289.317 133.463 290.982C135.057 291.501 135.74 288.992 134.154 288.476C129.456 286.947 125.553 283.962 122.35 280.253C121.254 278.985 119.422 280.83 120.511 282.091ZM213.019 292.082C218.355 289.865 223.374 286.752 226.625 281.828C227.549 280.428 225.299 279.124 224.38 280.516C221.538 284.821 216.998 287.635 212.328 289.576C210.805 290.208 211.473 292.725 213.019 292.082Z" fill="#462A3A"/>
<path d="M226.625 281.828C229.991 276.64 231.628 270.75 231.375 264.568C230.635 264.874 229.895 265.18 229.156 265.487C232.7 269.491 236.588 264.822 237.923 261.299C239.659 256.723 239.565 251.344 238.987 246.551C238.789 244.911 236.187 244.891 236.387 246.551C236.676 248.94 236.782 251.364 236.667 253.768C236.606 255.037 234.473 267.58 230.994 263.649C230.253 262.811 228.73 263.47 228.775 264.568C229.012 270.347 227.535 275.654 224.38 280.516C223.467 281.923 225.717 283.228 226.625 281.828ZM101.486 247.323C91.3029 251.751 85.6624 261.807 87.331 272.789C89.3339 285.972 100.571 290.606 111.159 295.886C112.651 296.631 113.97 294.389 112.471 293.642C103.339 289.088 93.0142 285.414 90.2693 274.32C87.6813 263.86 92.9792 253.837 102.798 249.567C104.328 248.902 103.006 246.662 101.486 247.323Z" fill="#462A3A"/>
<path d="M110.728 245.013C107.68 245.45 104.679 246.093 101.797 247.192C100.249 247.782 100.921 250.296 102.488 249.698C105.37 248.599 108.371 247.956 111.419 247.52C113.068 247.284 112.366 244.779 110.728 245.013Z" fill="#462A3A"/>
<path d="M237.342 247.804C239.624 248.205 241.865 248.748 244.044 249.543C245.617 250.118 246.296 247.607 244.735 247.037C242.556 246.241 240.315 245.699 238.033 245.297C236.397 245.01 235.695 247.514 237.342 247.804Z" fill="#382F34"/>
<path d="M244.043 249.543C254.045 253.571 259.158 263.941 256.665 274.32C254.003 285.405 243.545 289.113 234.464 293.642C232.967 294.388 234.282 296.631 235.776 295.886C246.506 290.535 257.776 285.823 259.65 272.443C261.215 261.271 255.157 251.234 244.734 247.037C243.183 246.412 242.509 248.925 244.043 249.543ZM212.904 295.319C196.893 298.012 180.659 295.962 164.581 295.139C152.548 294.522 140.968 295.17 129.145 297.341C127.502 297.642 128.198 300.148 129.836 299.847C142.492 297.524 154.866 297.154 167.717 297.912C183.015 298.814 198.369 300.387 213.595 297.825C215.241 297.549 214.543 295.043 212.904 295.319ZM145.28 215.155C147.271 229.091 161.418 237.893 174.796 237.561C188.543 237.22 200.611 228.059 203.732 214.552C204.108 212.924 201.602 212.229 201.225 213.861C198.355 226.285 187.44 234.579 174.796 234.961C162.458 235.334 149.614 227.259 147.786 214.464C147.55 212.815 145.045 213.516 145.28 215.155Z" fill="#462A3A"/>
<path d="M112.372 246.267C112.682 235.733 116.55 225.605 123.659 217.775C125.992 215.206 125.397 214.81 128.543 214.825C136.77 214.864 144.998 214.903 153.225 214.943C174.75 215.045 196.275 215.147 217.8 215.25C218.937 215.255 222.709 214.611 223.707 215.278C222.246 214.301 224.938 218.97 224.008 216.634C224.525 217.932 225.714 219.213 226.45 220.416C227.89 222.767 229.222 225.182 230.425 227.663C233.29 233.569 235.532 240.017 236.388 246.551C236.602 248.186 239.204 248.207 238.987 246.551C237.624 236.143 233.291 226.22 227.653 217.439C225.617 214.268 225.067 212.685 221.587 212.668C212.74 212.626 203.893 212.584 195.045 212.542C172.878 212.437 150.71 212.331 128.543 212.226C124.925 212.209 123.733 213.723 121.172 216.667C113.987 224.932 110.094 235.348 109.773 246.267C109.724 247.94 112.323 247.938 112.372 246.267Z" fill="#462A3A"/>
<path d="M80.5878 195.629C90.1189 215.558 113.407 219.862 133.336 221.595C140.712 222.379 148.01 222.754 155.163 223.613C156.988 223.832 167.295 229.203 173.559 229.356C179.545 229.501 192.08 223.94 195.762 223.724C215.242 222.578 228.066 222.387 247.75 214.951C267.301 206.805 282.054 178.388 271.703 158.589C271.709 164.014 270.193 169.439 267.129 173.923C265.851 175.794 264.228 177.579 262.072 178.273C259.915 178.968 257.16 178.194 256.27 176.111C253.045 186.197 245.088 194.596 235.327 198.631C232.389 199.845 229.04 198.292 228.088 195.259C221.952 200.065 215.357 204.285 208.422 207.843C206.425 208.868 204.247 209.523 202.005 209.633C195.456 209.955 195.237 207.053 192.061 208.461C190.221 209.276 189.093 211.178 187.371 212.221C185.785 213.182 183.847 213.327 181.992 213.377C170.849 213.681 159.643 211.453 149.462 206.91L149.455 206.945C149.08 208.669 147.595 209.946 145.833 210.024C136.38 210.447 128.85 205.423 122.468 199.541C122.853 200.373 123.136 201.252 123.315 202.151C123.825 204.721 121.427 206.937 118.888 206.294C112.67 204.718 107.208 200.099 104.883 194.092C104.772 193.804 104.504 193.673 104.149 193.644C101.182 193.407 99.1719 191.391 97.1515 189.206C94.5849 186.43 92.5516 179.454 92.592 176.727C86.8472 174.829 83.2086 171.326 81.646 165.747C80.1258 160.319 80.071 154.872 82.5868 149.876C74.3117 164.016 73.4165 181.287 80.5878 195.629Z" fill="#AD93A5"/>
<path d="M260.813 140.175C248.682 122.846 241.634 111.023 229.62 91.0756C214.312 65.6593 168.101 67.3922 138.641 76.0569C129.977 78.6563 124.345 84.866 119.146 92.6641C107.624 113.403 95.665 131.768 82.3324 150.387C80.0706 155.242 80.1778 160.504 81.6463 165.747C83.2088 171.326 86.8475 174.829 92.5923 176.727C92.5519 179.454 94.5852 186.43 97.1518 189.206C99.1722 191.392 101.183 193.407 104.149 193.644C104.504 193.673 104.772 193.804 104.883 194.092C107.208 200.099 112.67 204.718 118.888 206.294C121.428 206.937 123.825 204.721 123.315 202.151C123.136 201.252 122.853 200.373 122.469 199.541C128.851 205.423 136.38 210.447 145.833 210.025C147.596 209.946 149.08 208.669 149.455 206.945L149.463 206.91C159.643 211.453 170.849 213.681 181.993 213.377C183.848 213.327 185.785 213.182 187.372 212.221C189.093 211.178 190.221 209.276 192.062 208.461C195.237 207.053 195.456 209.955 202.006 209.633C204.248 209.523 206.425 208.868 208.422 207.844C215.357 204.285 221.952 200.065 228.088 195.259C229.04 198.292 232.389 199.845 235.327 198.631C245.089 194.596 253.045 186.197 256.27 176.111C257.161 178.195 259.915 178.968 262.072 178.273C264.228 177.579 265.852 175.794 267.13 173.924C270.451 169.063 271.944 163.097 271.659 157.224C268.615 151.147 264.921 145.457 260.813 140.175Z" fill="#B89CAE"/>
<path d="M123.031 106.004C124.923 99.3415 132.921 96.8527 138.403 100.984C139.74 101.991 141.036 99.7352 139.715 98.7398C132.844 93.5616 122.846 97.1379 120.524 105.313C120.066 106.925 122.573 107.613 123.031 106.004ZM212.291 101.733C217.808 97.6497 225.794 100.198 227.621 106.879C228.062 108.49 230.57 107.806 230.128 106.188C227.884 97.983 217.883 94.3787 210.979 99.488C209.649 100.472 210.944 102.729 212.291 101.733ZM234.677 174.775C237.806 172.459 242.324 173.822 243.368 177.641C243.809 179.252 246.317 178.568 245.875 176.95C244.416 171.618 237.872 169.195 233.365 172.531C232.035 173.515 233.33 175.772 234.677 174.775ZM105.114 179.223C105.804 175.386 110.041 173.345 113.433 175.416C114.865 176.29 116.172 174.042 114.745 173.171C110.015 170.284 103.597 173.032 102.607 178.532C102.313 180.168 104.817 180.87 105.114 179.223Z" fill="#462A3A"/>
<path d="M175.385 152.22C175.612 152.723 175.856 153.209 176.117 153.677C176.244 153.191 175.749 152.706 175.385 152.22Z" fill="#FCE6F4"/>
<path d="M152.172 135.781C153.538 126.888 151.463 117.017 145.61 110.908C139.757 104.798 129.943 103.557 123.789 109.271C119.951 112.834 117.952 118.455 117.373 124.047C116.794 129.639 117.483 135.288 118.17 140.864C129.429 144.146 141.53 141.092 152.172 135.781Z" fill="#AD93A5"/>
<path d="M126.079 128.481C125.317 124.464 126 119.932 128.88 117.029C130.144 115.757 131.779 114.858 133.531 114.474C134.8 114.195 135.97 114.601 136.998 115.445C136.508 114.27 135.776 113.228 134.654 112.398C134.169 112.039 133.642 111.722 132.681 111.577C134.319 110.939 136.597 111.756 137.645 113.166C139.913 116.216 140.484 119.914 141.131 123.429C141.335 124.535 141.266 124.519 141.481 125.732C141.922 128.224 140.852 132.61 138.374 133.774C137.79 134.048 136.977 134.326 136.345 134.45C135.495 134.617 135.08 134.706 134.231 134.873C133.293 135.057 131.93 134.848 130.985 134.705C128.195 134.283 126.604 131.254 126.079 128.481Z" fill="black"/>
<path d="M131.559 123.483C132.747 123.483 133.711 122.52 133.711 121.332C133.711 120.144 132.747 119.181 131.559 119.181C130.371 119.181 129.408 120.144 129.408 121.332C129.408 122.52 130.371 123.483 131.559 123.483Z" fill="white"/>
<path d="M136.519 128.833C137.266 128.833 137.871 128.227 137.871 127.48C137.871 126.733 137.266 126.128 136.519 126.128C135.772 126.128 135.166 126.733 135.166 127.48C135.166 128.227 135.772 128.833 136.519 128.833Z" fill="white"/>
<path d="M196.164 135.781C194.798 126.888 196.873 117.017 202.726 110.908C208.578 104.798 218.392 103.557 224.547 109.271C228.385 112.834 230.384 118.455 230.962 124.047C231.237 126.697 231.226 129.36 231.066 132.022C230.726 137.688 226.095 142.215 220.419 142.221C212.149 142.229 203.783 139.584 196.164 135.781Z" fill="#AD93A5"/>
<path d="M222.257 128.481C223.019 124.464 222.337 119.932 219.456 117.029C218.193 115.757 216.557 114.858 214.806 114.474C213.536 114.195 212.366 114.601 211.338 115.445C211.828 114.27 212.561 113.228 213.682 112.398C214.167 112.039 214.694 111.722 215.655 111.577C214.018 110.939 211.74 111.756 210.691 113.166C208.423 116.216 207.852 119.914 207.205 123.429C207.001 124.535 207.071 124.519 206.856 125.732C206.414 128.224 207.485 132.61 209.963 133.774C210.546 134.048 211.359 134.326 211.992 134.45C212.841 134.617 213.256 134.706 214.105 134.873C215.043 135.057 216.406 134.848 217.351 134.705C220.141 134.283 221.732 131.254 222.257 128.481Z" fill="black"/>
<path d="M216.776 123.483C217.964 123.483 218.927 122.52 218.927 121.332C218.927 120.144 217.964 119.181 216.776 119.181C215.588 119.181 214.625 120.144 214.625 121.332C214.625 122.52 215.588 123.483 216.776 123.483Z" fill="white"/>
<path d="M211.818 128.833C212.565 128.833 213.17 128.227 213.17 127.48C213.17 126.733 212.565 126.128 211.818 126.128C211.07 126.128 210.465 126.733 210.465 127.48C210.465 128.227 211.07 128.833 211.818 128.833Z" fill="white"/>
<path d="M174.387 168.761C174.433 168.806 174.486 168.855 174.534 168.901C174.582 168.855 174.634 168.806 174.681 168.761H174.387ZM175.385 152.22C175.267 151.96 175.14 151.709 175.032 151.439C175.032 151.7 175.189 151.96 175.385 152.22Z" fill="#FCE6F4"/>
<path d="M143.721 205.373C145.165 207.381 146.501 209.455 148.234 211.297C153.372 216.759 161.723 219.723 170.038 220.131C178.353 220.54 180.815 220.691 188.072 218.2C192.499 216.68 199.12 213.976 203.669 205.744C206.761 200.149 212.936 192.114 217.811 187.272C209.797 187.901 201.629 187.166 193.97 185.103C186.87 183.191 180.008 180.123 172.548 180.016C162.301 179.868 152.725 184.982 143.404 187.893C128.054 192.687 136.818 195.774 143.721 205.373Z" fill="#E0C7DA"/>
<path d="M90.7621 176.29C88.0181 178.241 83.5019 182.926 85.5798 186.813C87.377 190.174 90.9355 186.731 92.599 184.959C91.9186 184.434 91.2381 183.909 90.5577 183.384C88.1119 188.575 88.3049 196.269 93.603 199.796C98.137 202.815 101.102 198.878 101.065 194.593C101.05 192.921 98.4507 192.917 98.4654 194.593C98.5086 199.514 94.346 198.03 92.6242 194.416C91.1236 191.266 91.3203 187.841 92.8022 184.696C93.3955 183.437 91.8368 181.975 90.7609 183.121C90.121 183.888 89.3892 184.557 88.5655 185.127C87.5645 185.422 87.4237 184.989 88.1433 183.829C88.3053 181.544 90.3475 179.762 92.0741 178.534C93.426 177.572 92.1292 175.317 90.7621 176.29Z" fill="#462A3A"/>
<path d="M174.397 206.814C174.272 198.952 174.148 191.089 174.023 183.227C169.217 183.506 164.41 183.786 159.604 184.065C159.795 186.862 160.167 189.953 160.821 193.268C161.753 197.988 163.058 202.132 164.432 205.665C167.899 206.694 171.149 207.08 174.397 206.814Z" fill="white"/>
<path d="M164.433 205.665C164.764 206.516 165.098 207.343 165.433 208.122C166.766 208.649 168.657 209.218 170.972 209.356C172.287 209.434 173.457 209.357 174.435 209.224C174.423 208.421 174.41 207.618 174.397 206.814C171.149 207.08 167.9 206.694 164.433 205.665ZM174.805 206.814C174.929 198.952 175.054 191.089 175.179 183.227C179.985 183.506 184.792 183.786 189.598 184.065C189.407 186.862 189.035 189.953 188.381 193.268C187.449 197.988 186.144 202.132 184.769 205.665C181.302 206.694 178.053 207.08 174.805 206.814Z" fill="white"/>
<path d="M184.769 205.665C184.438 206.516 184.104 207.343 183.768 208.122C182.436 208.649 180.545 209.218 178.23 209.356C176.915 209.434 175.745 209.357 174.767 209.224C174.779 208.421 174.792 207.618 174.805 206.814C178.052 207.08 181.302 206.694 184.769 205.665ZM174.023 183.227C169.217 183.506 164.41 183.786 159.604 184.065C159.795 186.862 160.167 189.953 160.821 193.268C161.753 197.988 163.058 202.132 164.432 205.665C164.764 206.516 165.098 207.343 165.433 208.122C166.766 208.649 168.657 209.218 170.972 209.356C172.287 209.434 173.457 209.357 174.435 209.224C174.422 208.421 174.41 207.618 174.397 206.814C174.272 198.952 174.148 191.089 174.023 183.227Z" fill="white"/>
<path d="M174.024 181.927C169.217 182.207 164.41 182.486 159.604 182.765C158.945 182.804 158.247 183.331 158.304 184.065C158.875 191.377 160.352 198.542 162.952 205.41C163.77 207.573 163.895 208.83 165.953 209.693C168.539 210.776 171.707 210.814 174.435 210.524C175.125 210.45 175.747 209.988 175.735 209.224C175.598 200.558 175.46 191.893 175.323 183.227C175.297 181.556 172.697 181.551 172.724 183.227C172.861 191.893 172.999 200.558 173.136 209.224C173.569 208.791 174.002 208.358 174.435 207.924C172.367 208.145 168.954 208.524 167.141 207.339C165.475 206.25 164.973 203.486 164.346 201.584C162.472 195.898 161.369 190.03 160.903 184.065C160.47 184.498 160.037 184.932 159.604 185.365C164.41 185.085 169.217 184.806 174.023 184.527C175.686 184.43 175.697 181.83 174.024 181.927Z" fill="#462A3A"/>
<path d="M175.178 183.227C175.054 191.089 174.929 198.952 174.805 206.814C174.792 207.618 174.779 208.421 174.767 209.224C175.745 209.357 176.915 209.434 178.23 209.356C180.545 209.218 182.436 208.649 183.769 208.122C184.104 207.343 184.438 206.516 184.769 205.665C186.144 202.132 187.449 197.988 188.381 193.268C189.035 189.953 189.407 186.862 189.598 184.065C184.792 183.786 179.985 183.506 175.178 183.227Z" fill="white"/>
<path d="M173.879 183.227C173.742 191.893 173.604 200.558 173.467 209.224C173.455 209.981 174.076 210.45 174.767 210.524C177.495 210.814 180.663 210.776 183.249 209.693C185.307 208.83 185.432 207.573 186.25 205.41C188.85 198.542 190.327 191.377 190.898 184.065C190.955 183.336 190.255 182.803 189.598 182.765C184.792 182.486 179.985 182.207 175.179 181.927C173.507 181.83 173.513 184.43 175.179 184.526C179.985 184.806 184.792 185.085 189.598 185.365C189.165 184.931 188.732 184.498 188.299 184.065C187.832 190.033 186.722 195.892 184.856 201.584C184.371 203.063 183.807 206.166 182.558 207.186C180.827 208.6 176.844 208.145 174.767 207.924C175.2 208.357 175.633 208.791 176.066 209.224C176.203 200.558 176.341 191.893 176.478 183.227C176.505 181.554 173.905 181.553 173.879 183.227Z" fill="#462A3A"/>
<path d="M232.709 164.003C232.703 160.015 232.698 156.583 231.537 152.181C230.725 149.104 228.69 141.391 221.865 136.004C221.007 135.327 217.819 132.907 213.073 131.649C207.631 130.206 203.269 131.12 200.178 131.649C194.894 132.553 187.23 133.376 177.025 132.893H172.043C161.838 133.376 154.174 132.553 148.89 131.649C145.799 131.12 141.437 130.206 135.995 131.649C131.249 132.907 128.061 135.327 127.203 136.004C120.378 141.391 118.343 149.104 117.531 152.181C116.37 156.583 116.365 160.015 116.359 164.003C116.355 166.997 116.353 169.96 116.797 173.047C133.45 187.117 159.389 177.23 175.899 167.325C176.02 167.204 176.086 167.083 176.117 166.963C175.856 166.495 175.612 166.009 175.385 165.506C175.19 165.246 175.033 164.985 175.033 164.725C175.14 164.995 175.267 165.246 175.385 165.506C175.749 165.991 176.244 166.477 176.117 166.963C184.409 181.805 209.576 179.376 225.287 177.722C227.697 177.32 229.92 175.985 232.044 174.412C232.714 170.827 232.714 167.435 232.709 164.003Z" fill="#FCE6F4"/>
<path d="M176.117 166.963C176.086 167.083 176.019 167.204 175.899 167.324C159.389 177.23 133.45 187.117 116.797 173.047C117.126 175.335 117.699 177.692 118.703 180.18C119.831 182.973 121.818 187.895 126.616 191.068C128.104 192.052 130.231 193.112 135.116 193.868C139.838 194.599 148.153 195.887 158.268 192.313C166.034 189.569 171.437 185.17 174.534 182.187C174.486 182.141 174.433 182.092 174.387 182.046H174.681C174.634 182.092 174.582 182.141 174.534 182.187C177.631 185.17 183.033 189.569 190.799 192.313C200.914 195.887 209.229 194.599 213.952 193.868C218.836 193.112 220.963 192.052 222.451 191.068C227.249 187.895 229.236 182.973 230.364 180.18C231.17 178.183 231.695 176.272 232.043 174.412C229.919 175.985 227.697 177.32 225.287 177.722C209.576 179.376 184.409 181.805 176.117 166.963Z" fill="#EFD8E8"/>
<path d="M106.888 175.439C111.17 186.542 122.886 192.929 134.129 195.012C149.37 197.834 164.325 193.727 175.6 182.966C176.812 181.808 174.972 179.972 173.762 181.127C163.201 191.207 149.115 195.152 134.82 192.505C124.576 190.608 113.332 184.958 109.394 174.748C108.799 173.203 106.284 173.874 106.888 175.439Z" fill="#462A3A"/>
<path d="M173.468 182.966C183.973 192.992 199.094 198.408 213.532 195.294C220.069 193.884 225.915 190.244 230.93 185.923C234.395 182.937 238.587 179.152 240.533 174.883C241.221 173.372 238.981 172.049 238.288 173.571C236.638 177.192 233.22 180.351 230.337 182.984C225.574 187.334 219.938 191.075 213.606 192.615C199.924 195.942 185.272 190.639 175.306 181.128C174.095 179.972 172.254 181.808 173.468 182.966Z" fill="#462A3A"/>
<path d="M175.934 182.392C177.463 176.011 177.937 169.004 176.439 162.57C176.06 160.941 173.553 161.631 173.933 163.261C175.316 169.206 174.837 175.818 173.428 181.701C173.038 183.327 175.544 184.021 175.934 182.392Z" fill="#462A3A"/>
<path d="M134.817 137.456C132.953 136.516 130.479 135.661 127.558 135.589C126.097 135.553 123.67 135.525 121.544 137.041C121.032 137.406 119.755 138.316 119.885 139.322C119.913 139.541 120.059 140.168 122.166 141.189C123.204 141.692 124.73 142.296 126.729 142.641C124.912 142.745 121.741 143.187 118.433 145.13C117.037 145.949 113.867 148.064 111.796 151.974C110.078 155.217 110.288 157.487 110.344 157.988C110.442 158.849 110.601 160.103 111.589 161.099C112.955 162.478 114.917 162.367 115.322 162.344C116.09 162.3 116.931 162.086 119.47 160.477C121.736 159.04 122.343 158.401 123.618 157.573C124.884 156.751 126.831 155.728 129.632 155.085C128.421 155.74 126.192 157.178 124.655 159.855C123.51 161.848 123.298 163.572 123.203 164.418C122.961 166.572 123.476 167.334 123.618 167.528C124.395 168.595 125.725 168.755 125.899 168.773L133.063 154.9L134.817 137.456Z" fill="#FCE6F4"/>
<path d="M135.473 136.334C131.081 134.279 122.553 132.352 119.225 137.446C116.541 141.553 123.735 143.328 126.383 143.894C126.499 143.043 126.614 142.192 126.729 141.341C118.497 142.002 107.379 149.113 109.164 158.818C109.791 162.223 112.883 164.269 116.293 163.503C118.454 163.018 120.431 161.432 122.198 160.195C124.699 158.445 126.969 157.131 129.978 156.338C129.644 155.546 129.31 154.754 128.977 153.962C125.388 156.017 122.726 159.305 122.033 163.456C121.523 166.504 122.141 169.381 125.554 170.026C127.189 170.335 127.889 167.83 126.245 167.52C120.64 166.461 127.898 157.576 130.289 156.207C131.573 155.471 130.712 153.456 129.287 153.831C126.414 154.588 124.018 155.71 121.604 157.417C119.667 158.787 116.399 162.001 113.722 160.886C108.704 158.798 113.403 151.334 115.461 149.131C118.387 145.999 122.493 144.28 126.729 143.941C128.098 143.831 128.602 141.714 127.075 141.388C124.569 140.852 118.386 138.731 124.504 137.118C127.677 136.282 131.28 137.23 134.162 138.578C135.668 139.283 136.989 137.043 135.473 136.334Z" fill="#462A3A"/>
<path d="M196.304 224.373C214.768 223.198 235.994 223.509 252.636 214.295C266.209 206.78 275.011 191.983 275.895 176.578C276.898 159.09 266.528 144.498 256.503 131.207C250.975 123.878 245.585 116.554 241.237 108.446C236.883 100.327 232.976 91.7889 226.467 85.1063C214.465 72.7844 197.211 69.4318 180.704 68.774C164.272 68.1191 146.663 69.3221 132.349 78.2158C116.403 88.1233 111.268 106.74 100.941 121.386C91.043 135.422 78.085 148.845 74.9224 166.361C71.8657 183.291 79.2463 201.431 93.1701 211.522C110.073 223.772 134.067 223.008 153.955 224.373C155.625 224.488 155.618 221.888 153.955 221.774C136.478 220.574 116.829 220.98 100.776 213.051C86.2137 205.858 76.8162 190.317 76.8064 174.104C76.7963 157.62 87.2692 143.974 96.7337 131.434C101.689 124.869 106.539 118.268 110.491 111.037C114.583 103.549 118.057 95.5439 123.658 89.0076C135.228 75.505 153.94 71.3258 171.009 71.2682C186.208 71.2169 201.891 71.8891 215.361 79.7653C230.976 88.8957 235.808 106.311 245.447 120.478C254.44 133.695 266.361 145.737 271.292 161.282C276.784 178.594 270.457 198.52 255.691 209.277C239.283 221.231 215.668 220.541 196.304 221.774C194.642 221.88 194.631 224.48 196.304 224.373Z" fill="#462A3A"/>
<path d="M187.515 82.9182C189.929 83.0198 192.05 80.6678 191.991 78.252C191.967 77.2391 191.607 76.2135 190.89 75.4981C190.172 74.7828 189.078 74.4227 188.103 74.6972C188.41 74.0782 189.252 74.0437 189.925 73.8845C191.568 73.4954 193.423 71.661 193.342 69.9742C193.262 68.2874 191.352 66.8807 189.771 66.2869C188.515 65.8149 187.12 65.8877 185.795 66.1005C181.211 66.8366 176.91 69.2222 173.858 72.7211L187.515 82.9182Z" fill="#B89CAE"/>
<path d="M187.515 84.2179C194.167 83.5621 195.459 72.856 188.103 73.3975C188.321 74.2049 188.54 75.0122 188.759 75.8195C191.038 74.115 195.285 73.8383 195.178 69.9917C195.114 67.6926 193.161 66.0797 191.179 65.3568C184.664 62.9804 177.268 67.1534 172.939 71.8022C171.8 73.0254 173.634 74.8676 174.777 73.6402C177.888 70.2993 182.361 67.3731 187.092 67.3176C188.309 67.3034 190.183 67.3927 191.181 68.1804C193.139 69.7265 191.429 71.856 189.579 72.6313C188.663 73.0151 188.313 72.9269 187.447 73.575C186.527 74.2624 186.675 76.1021 188.103 75.9969C191.794 77.1864 191.598 79.0603 187.515 81.6184C185.865 81.7811 185.849 84.3821 187.515 84.2179Z" fill="#462A3A"/>
<path d="M147.08 218.686C160.723 234.314 187.767 233.051 202.582 220.011C203.84 218.903 201.996 217.071 200.744 218.173C186.931 230.331 161.588 231.362 148.918 216.848C147.815 215.585 145.983 217.43 147.08 218.686Z" fill="#462A3A"/>
<path d="M162.206 148.262C170.648 152.595 179.653 153.461 187.532 149.129C192.002 146.118 194.112 139.477 194.555 131.964C194.175 131.428 193.771 130.928 193.339 130.484C191.574 128.673 189.622 127.382 187.11 126.36C182.624 124.536 174.854 124.402 165.488 126.049C162.004 126.662 159.111 128.702 157.194 131.407C156.237 138.725 157.905 146.276 162.206 148.262Z" fill="#543448"/>
<path d="M197.415 139.115C197.411 139.088 197.406 139.061 197.401 139.034C196.914 136.298 195.906 133.863 194.556 131.964C194.112 139.477 192.002 146.118 187.532 149.129C179.653 153.461 170.648 152.595 162.206 148.262C157.906 146.276 156.237 138.725 157.195 131.407C155.902 133.231 155.05 135.356 154.779 137.56C154.5 139.823 154.162 144.166 155.183 149.381C155.626 151.643 156.436 155.784 158.82 159.025C159.409 159.825 161.062 161.888 165.893 163.381C168.221 164.1 169.478 163.502 179.229 164.003C182.841 164.188 187.39 163.878 190.721 161.692C193.582 159.815 195.494 155.97 196.302 153.894C197.676 150.372 197.805 146.379 197.82 144.404C197.84 141.621 197.498 139.587 197.415 139.115Z" fill="#462A3A"/>
<path d="M166.99 135.554C169.321 135.554 171.211 134.196 171.211 132.522C171.211 130.847 169.321 129.489 166.99 129.489C164.658 129.489 162.769 130.847 162.769 132.522C162.769 134.196 164.658 135.554 166.99 135.554Z" fill="#FCE6F4"/>
<path d="M235.383 295.935C246.492 289.119 251.153 282.333 252.136 279.628C252.517 278.58 252.825 277.452 252.601 276.361C252.188 274.344 250.019 273.081 247.969 273.045C245.92 273.009 243.98 273.912 242.157 274.855C232.427 279.89 212.085 292.14 208.932 303.672C207.459 309.06 209.665 308.162 215.259 306.56C222.362 304.526 229.135 299.768 235.383 295.935Z" fill="#462A3A"/>
<path d="M250.823 272.046C246.619 272.655 242.257 272.171 238.595 270.21C237.451 269.597 236.041 270.123 235.556 271.327C234.311 274.418 231.31 279.955 224.395 285.955C230.034 284.744 230.865 298.104 236.165 295.827C244.987 292.038 250.842 290.444 254.271 289.775C255.797 289.478 256.519 287.748 255.674 286.444C254.111 284.031 252.511 280.07 253.268 274.489C253.461 273.063 252.248 271.84 250.823 272.046Z" fill="#462A3A"/>
<path d="M110.069 296.151C98.9604 289.336 94.2992 282.549 93.3158 279.844C92.9351 278.797 92.6274 277.669 92.8509 276.577C93.264 274.561 95.4334 273.298 97.4825 273.262C99.5317 273.225 101.472 274.129 103.295 275.072C113.025 280.107 133.367 292.357 136.52 303.889C137.993 309.276 135.787 308.379 130.193 306.777C123.09 304.743 116.317 299.984 110.069 296.151Z" fill="#462A3A"/>
<path d="M94.6292 272.263C98.8327 272.871 103.195 272.388 106.857 270.426C108.001 269.813 109.41 270.339 109.896 271.544C111.141 274.635 114.142 280.172 121.058 286.171C115.418 284.96 114.587 298.321 109.287 296.044C100.465 292.254 94.61 290.661 91.1806 289.992C89.6554 289.695 88.9334 287.964 89.7782 286.66C91.3408 284.248 92.9408 280.286 92.1841 274.706C91.9906 273.279 93.2044 272.056 94.6292 272.263Z" fill="#462A3A"/>
<path d="M83.3096 132.039C83.549 135.205 84.2814 138.048 85.9357 138.544C87.6624 139.063 89.8974 136.879 91.6078 134.763C95.2008 130.861 100.59 125.718 107.994 120.898C110.008 119.586 119.139 113.762 133.833 109.554C147.6 105.611 158.137 105.411 172.277 105.142C185.987 104.882 196.786 104.754 210.721 108.293C221.598 111.056 229.297 114.758 231.518 115.856C236.762 118.448 247.435 124.299 258.02 134.795C258.271 135.044 258.478 135.252 258.618 135.393C259.637 133.44 260.723 130.898 261.482 127.831C208.987 90.5174 132.52 88.6929 83.3096 132.039Z" fill="#B6D4FF"/>
<path d="M261.139 110.184C260.858 108.858 260.554 107.6 260.19 106.312C224.561 89.5671 186.731 85.2164 148.328 90.0168C125.847 92.631 104.238 99.5894 86.7294 113.396C85.2997 116.54 83.8864 120.653 83.4146 125.31C83.2244 127.188 83.1327 129.701 83.3093 132.039C132.52 88.6929 208.987 90.5175 261.481 127.831C261.583 127.42 261.68 127 261.769 126.57C262.396 123.541 262.939 118.694 261.139 110.184Z" fill="url(#paint2_linear_1011_21483)"/>
<path d="M77.7421 85.6052C71.9184 76.4535 71.5903 64.0097 77.2931 55.5176C77.0928 55.6693 76.8863 55.8129 76.689 55.9689C67.0962 63.5604 64.2165 77.2431 66.0872 89.3327C66.9365 94.8207 68.7127 100.347 72.3901 104.508C76.1031 108.71 81.3767 111.132 86.4884 113.437L100.543 97.3981C91.8764 100.212 82.0497 93.1433 77.7421 85.6052Z" fill="#6C98E5"/>
<path d="M113.035 62.2867C103.155 54.2024 88.7954 51.5658 77.0235 55.9602C71.6174 64.4381 72.0173 76.6081 77.7426 85.6052C82.0502 93.1433 91.8769 100.212 100.544 97.3981L120.908 74.1597C118.595 70.0741 116.958 65.2286 113.035 62.2867Z" fill="#83A5F2"/>
<path d="M106.117 48.3529C95.958 46.8829 85.3186 49.4477 77.2936 55.5177C77.1973 55.6612 77.1163 55.8145 77.0234 55.9602C88.7953 51.5659 103.155 54.2024 113.035 62.2868C116.958 65.2287 118.595 70.0741 120.908 74.1597L131.312 62.2868C124.701 57.2848 114.321 49.5403 106.117 48.3529Z" fill="#B6D4FF"/>
<path d="M238.554 62.7746C230.092 54.4446 219.301 50.4789 211.981 47.7915C190.1 39.7589 171.143 42.5146 156.521 44.6403C139.539 47.1091 128.177 51.0206 121.228 55.9845C118.19 58.1546 115.534 60.5128 113.204 62.9279C124.409 57.3439 147.212 47.8405 172.486 47.1613C200.466 46.4093 226.443 56.9333 238.554 62.7746Z" fill="#B6D4FF"/>
<path d="M252.946 88.1261C248.101 77.351 245.678 71.9634 244.753 70.4797C242.93 67.5558 240.825 65.0099 238.554 62.7746C226.444 56.9333 200.466 46.4093 172.487 47.1613C147.213 47.8404 124.41 57.3438 113.205 62.9279C102.004 74.5402 98.5401 87.4958 98.5401 87.4958C98.1539 90.5123 92.9681 103.524 90.3472 107.033C90.1567 107.288 88.4313 109.655 86.7295 113.396C104.238 99.5892 125.847 92.6309 148.328 90.0167C186.731 85.2163 224.561 89.567 260.19 106.312C258.947 101.912 257.009 97.1612 252.946 88.1261Z" fill="#83A5F2"/>
<path d="M97.7942 87.6947C94.7733 88.5664 91.4782 86.1566 90.6764 83.1165C89.1224 77.2249 95.89 71.35 101.383 74.8056C106.453 77.9948 102.627 86.3 97.7942 87.6947Z" fill="url(#paint3_linear_1011_21483)"/>
<path d="M270.592 66.6983C267.63 57.8124 260.121 52.3376 251.883 48.1718C248.607 47.825 245.278 47.8786 241.999 48.3529C233.794 49.5402 223.414 57.2848 216.804 62.2867L249.796 99.936C266.285 99.7741 275.757 82.1946 270.592 66.6983Z" fill="#83A5F2"/>
<path d="M271.427 55.9689C265.885 51.5832 259.011 48.9265 251.883 48.1719C260.122 52.3376 267.631 57.8123 270.593 66.6984C275.758 82.1947 266.286 99.7741 249.797 99.9362L261.628 113.437C266.739 111.132 272.013 108.71 275.726 104.508C279.403 100.347 281.179 94.8209 282.028 89.3328C283.899 77.2431 281.02 63.5604 271.427 55.9689Z" fill="#6C98E5"/>
<path d="M250.322 87.6947C253.343 88.5664 256.638 86.1566 257.44 83.1165C258.994 77.2249 252.226 71.35 246.733 74.8056C241.663 77.9948 245.489 86.3 250.322 87.6947Z" fill="url(#paint4_linear_1011_21483)"/>
<path d="M272.083 54.8466C264.31 48.949 254.598 46.0543 244.849 46.7467C240.876 47.0289 237.198 48.0862 233.598 49.7879C231.541 50.7604 229.185 52.9417 226.847 52.7472C224.787 52.5759 221.651 50.2034 219.668 49.3735C200.89 41.5146 182.108 39.8749 162.062 42.5555C152.658 43.8129 143.208 45.2846 134.189 48.3189C131.077 49.3659 128.006 50.5933 125.095 52.119C123.627 52.8888 122.704 53.7561 121.247 53.5634C120.162 53.4197 118.24 51.7311 117.246 51.1886C115.931 50.4704 114.592 49.7966 113.219 49.1959C97.4682 42.3053 75.5335 49.2788 67.9577 65.0239C63.9142 73.4278 63.3624 83.3903 65.3406 92.4188C67.899 104.095 75.3965 109.834 85.8327 114.559C86.3355 114.787 87.0049 114.816 87.4077 114.356C87.5644 114.177 87.721 113.998 87.8776 113.819C87.1972 113.294 86.5168 112.769 85.8364 112.244C82.9943 118.516 81.4462 125.271 82.0247 132.178C82.2916 135.366 83.2405 140.914 87.6603 139.681C90.3524 138.93 92.124 136.062 93.9585 134.164C96.6451 131.383 99.5177 128.776 102.555 126.383C106.719 123.101 111.173 120.275 115.902 117.888C131.364 110.086 148.046 107.073 165.226 106.596C183.663 106.084 201.578 106.139 219.244 112.191C233.751 117.161 246.853 125.466 257.699 136.312C258.26 136.873 259.361 136.806 259.74 136.049C263.485 128.575 264.188 121.229 262.989 113.042C262.79 113.531 262.591 114.021 262.392 114.51C268.061 111.941 273.869 109.17 277.728 104.096C281.471 99.1742 283.058 92.8719 283.646 86.8112C284.776 75.1703 281.588 62.749 272.346 55.0499C271.069 53.9865 269.22 55.8158 270.507 56.888C278.928 63.9022 281.895 74.8973 281.154 85.5382C280.769 91.0737 279.449 97.0142 276.288 101.664C272.678 106.974 266.738 109.701 261.08 112.265C260.515 112.521 260.405 113.201 260.483 113.733C261.572 121.175 260.899 127.944 257.496 134.737C258.176 134.65 258.856 134.562 259.537 134.474C240.194 115.131 214.253 104.582 186.976 103.799C159.702 103.016 130.927 104.504 107.337 119.776C103.871 122.02 100.561 124.539 97.4522 127.256C94.756 129.612 92.5141 132.635 89.7942 134.895C89.1884 135.398 86.5926 137.311 85.6481 136.605C85.0391 136.15 84.7258 133.24 84.6683 132.727C84.4845 131.088 84.4861 129.417 84.5486 127.771C84.7371 122.811 86.0395 118.061 88.0808 113.556C88.6417 112.319 87.0913 110.781 86.0395 111.981C85.8828 112.16 85.7262 112.339 85.5696 112.518C86.0946 112.45 86.6196 112.382 87.1446 112.315C77.7105 108.043 70.517 103.044 68.0069 92.4082C65.9497 83.6913 66.4258 73.8726 70.4817 65.7796C74.7162 57.3301 83.1785 52.0622 92.2596 50.1208C103.158 47.7909 112.097 50.7459 121.243 56.6523C121.612 56.8912 122.185 56.8961 122.555 56.6523C136.035 47.7524 154.105 45.7186 169.819 44.2558C189.709 42.4042 209.362 46.0996 226.939 55.7639C227.341 55.985 227.851 56.012 228.251 55.7639C235.122 51.5032 241.64 48.8635 249.852 49.3132C257.516 49.7329 264.675 52.466 270.77 57.0912C272.103 58.1022 273.4 55.846 272.083 54.8466Z" fill="#462A3A"/>
<path d="M231.486 67.8574C229.094 64.2864 228.223 60.1877 229.098 55.9659C229.436 54.3334 226.931 53.6352 226.591 55.2749C225.58 60.1582 226.459 65.0149 229.241 69.1694C230.168 70.5524 232.421 69.2525 231.486 67.8574ZM135.94 58.8205C132.251 60.4975 128.572 61.261 124.519 61.2647C123.5 61.2656 122.945 62.3586 123.397 63.2203C124.385 65.1062 122.35 65.1395 121.123 66.1209C120.159 66.8916 119.323 67.871 118.71 68.9451C117.418 71.2074 117.201 73.6858 117.695 76.2024C117.959 77.5416 119.829 77.3306 120.202 76.2024C120.853 75.6574 121.504 75.1124 122.155 74.5673C121.666 73.9309 121.176 73.2945 120.687 72.6581C119.588 75.2502 119.339 77.5117 119.975 80.2786C120.349 81.9083 122.856 81.2185 122.481 79.5876C121.894 77.6816 122.045 75.8091 122.932 73.9701C123.375 72.9244 122.651 71.8175 121.464 72.0609C119.407 72.4825 118.341 73.5629 117.695 75.5114C118.531 75.5114 119.367 75.5114 120.202 75.5114C119.733 73.1235 120.318 70.5815 122.036 68.7883C123.08 67.6991 124.759 67.4518 125.72 66.3836C126.983 64.9801 126.428 63.4084 125.641 61.9085C125.267 62.5604 124.893 63.2122 124.519 63.8641C129.022 63.86 133.154 62.9276 137.252 61.065C138.773 60.3737 137.453 58.1328 135.94 58.8205Z" fill="#462A3A"/>
<path d="M191.557 235.009C189.691 235.703 188.977 238.421 190.262 239.942C189.029 239.46 187.747 239.104 186.442 238.88C185.064 238.644 183.578 238.572 182.334 239.211C180.069 240.375 179.495 243.361 179.656 245.903C179.7 246.586 179.778 247.272 179.98 247.926C180.646 250.084 182.607 251.646 184.731 252.413C186.856 253.18 189.155 253.273 191.412 253.356C193.58 253.436 195.748 253.515 197.915 253.593C198.569 253.616 199.322 253.597 199.737 253.092C200.36 252.333 199.73 251.24 199.277 250.37C197.299 246.57 200.594 244.061 200.171 240.561C199.793 237.423 194.65 233.86 191.557 235.009Z" fill="#462A3A"/>
<path d="M198.861 246.859C199.075 244.315 200.387 242.631 200.878 242.058C203.75 241.604 206.66 241.117 209.606 240.597C213.345 239.937 217.011 239.246 220.602 238.53C221.541 237.064 223.91 235.873 223.579 234.068C223.07 231.28 222.152 220.323 234.86 221.479C234.149 227.878 239.517 238.916 240.224 244.693C236.628 249.409 232.536 252.117 230.014 253.52C227.274 254.088 223.396 256.016 219.913 256.137C211.199 256.44 206.248 255.074 201.284 253.321C200.933 252.627 198.678 249.038 198.861 246.859Z" fill="#83A5F2"/>
<path d="M240.242 243.895C234.643 251.001 226.059 254.96 217.02 255.087C212.198 255.154 207.492 254.306 202.921 252.816C200.995 252.189 200.698 252.361 200.357 250.308C200.053 248.479 199.701 243.499 201.113 242.306C202.031 241.53 204.773 241.526 205.89 241.383C207.978 241.117 210.079 240.957 212.179 240.806C214.628 240.631 218.408 241.073 220.698 240.069C222.764 239.164 224.823 235.358 225.504 233.166C226.6 229.633 225.275 225.166 227.255 221.961C228.137 220.534 225.889 219.227 225.011 220.649C222.818 224.198 224.242 228.666 222.997 232.475C222.192 234.938 220.463 237.359 218.002 237.792C216.112 238.125 214.095 238.07 212.179 238.207C208.508 238.47 203.453 238.27 200.061 239.911C197.003 241.39 197.362 246.492 197.636 249.469C198.052 253.98 199.098 254.366 203.21 255.637C208.131 257.158 213.454 257.996 218.614 257.653C227.81 257.042 236.351 253.003 242.08 245.734C243.104 244.434 241.277 242.582 240.242 243.895Z" fill="#462A3A"/>
<path d="M146.933 201.84C148.598 200.748 151.21 201.784 151.674 203.721C152.016 202.442 152.489 201.199 153.082 200.015C153.709 198.765 154.532 197.526 155.784 196.903C158.064 195.768 160.809 197.076 162.76 198.712C163.285 199.152 163.791 199.622 164.198 200.172C165.542 201.988 165.637 204.493 164.996 206.658C164.354 208.824 163.066 210.731 161.795 212.598C160.575 214.392 159.354 216.184 158.131 217.976C157.762 218.516 157.301 219.111 156.648 219.146C155.668 219.198 155.16 218.043 154.728 217.162C152.841 213.317 148.866 214.484 146.298 212.069C143.995 209.904 144.175 203.65 146.933 201.84Z" fill="#462A3A"/>
<path d="M152.465 214.44C150.34 213.026 148.205 213.006 147.451 213.034C145.309 215.001 143.088 215.812 140.848 217.796C138.006 220.314 135.844 220.845 133.05 223.211C131.318 223.036 128.908 225.962 127.077 225.844C124.215 225.66 116.159 216.648 105.937 224.773C112.096 231.472 98.2676 228.607 109.656 245.162C123.519 248.917 135.642 244.082 138.309 242.979C140.458 241.186 142.757 238.997 145.017 236.345C150.673 229.709 153.744 222.93 155.458 217.952C155.134 217.246 154.285 215.652 152.465 214.44Z" fill="#83A5F2"/>
<path d="M109.887 247.571C118.455 248.91 128.272 250.052 136.212 245.688C144.845 240.942 151.2 231.5 155.021 222.649C155.712 221.048 156.96 219.04 156.58 217.296C156.25 215.781 154.263 214.127 153.121 213.318C151.605 212.244 148.757 210.58 146.784 210.911C144.79 211.246 141.45 214.837 139.748 216.147C136.183 218.89 132.673 222.944 128.23 224.221C123.747 225.51 119.405 218.864 114.819 218.352C113.159 218.167 113.172 220.768 114.819 220.951C119.049 221.423 121.834 226.142 126.011 226.979C128.847 227.548 132.272 225.611 134.398 223.879C138.264 220.73 142.023 217.238 146.245 214.569C147.276 213.918 147.056 213.75 147.9 213.653C149.253 213.499 153.271 216.013 153.666 217.416C154.186 219.26 152.633 221.759 151.77 223.554C148.085 231.217 142.51 239.26 134.9 243.444C127.642 247.433 118.381 246.284 110.578 245.064C108.942 244.808 108.237 247.312 109.887 247.571Z" fill="#462A3A"/>
<path d="M103.913 215.913C98.1918 224.701 99.9225 237.805 99.9807 247.761C99.9905 249.433 102.59 249.437 102.58 247.761C102.525 238.254 100.713 225.587 106.157 217.225C107.073 215.818 104.823 214.514 103.913 215.913Z" fill="#462A3A"/>
<path d="M242.429 218.091C247.875 226.457 246.062 239.111 246.006 248.628C245.996 250.301 248.596 250.303 248.606 248.628C248.664 238.674 250.394 225.566 244.673 216.779C243.764 215.382 241.513 216.684 242.429 218.091Z" fill="#462A3A"/>
<path d="M228.27 221.978C228.77 221.918 229.272 221.857 229.76 221.746C230.174 221.652 230.591 221.52 231.017 221.557C231.163 221.853 230.978 222.19 230.783 222.463C230.506 222.852 230.18 223.239 229.715 223.446C229.248 223.654 228.667 223.65 228.204 223.436C227.952 223.32 227.738 223.148 227.554 222.958C227.408 222.808 227.025 222.358 227.207 222.144C227.342 221.984 228.048 222.005 228.27 221.978Z" fill="#83A5F2"/>
<defs>
<linearGradient id="paint0_linear_1011_21483" x1="184.017" y1="36.2497" x2="184.017" y2="313.297" gradientUnits="userSpaceOnUse">
<stop stop-color="white"/>
<stop offset="0.126" stop-color="#FAFCFF"/>
<stop offset="0.28" stop-color="#EBF4FF"/>
<stop offset="0.451" stop-color="#D1E8FF"/>
<stop offset="0.632" stop-color="#AED6FF"/>
<stop offset="0.82" stop-color="#82BFFF"/>
<stop offset="0.995" stop-color="#52A6FF"/>
</linearGradient>
<linearGradient id="paint1_linear_1011_21483" x1="111.061" y1="244.296" x2="238.006" y2="244.296" gradientUnits="userSpaceOnUse">
<stop stop-color="#E7F1FF"/>
<stop offset="0.224" stop-color="#DCEAFF"/>
<stop offset="0.604" stop-color="#D1E3FF"/>
<stop offset="1" stop-color="#CDE0FF"/>
</linearGradient>
<linearGradient id="paint2_linear_1011_21483" x1="83.2148" y1="110.111" x2="262.364" y2="110.111" gradientUnits="userSpaceOnUse">
<stop stop-color="#E7F1FF"/>
<stop offset="0.224" stop-color="#DCEAFF"/>
<stop offset="0.604" stop-color="#D1E3FF"/>
<stop offset="1" stop-color="#CDE0FF"/>
</linearGradient>
<linearGradient id="paint3_linear_1011_21483" x1="90.4502" y1="80.8258" x2="103.78" y2="80.8258" gradientUnits="userSpaceOnUse">
<stop stop-color="#E7F1FF"/>
<stop offset="0.224" stop-color="#DCEAFF"/>
<stop offset="0.604" stop-color="#D1E3FF"/>
<stop offset="1" stop-color="#CDE0FF"/>
</linearGradient>
<linearGradient id="paint4_linear_1011_21483" x1="244.336" y1="80.8258" x2="257.666" y2="80.8258" gradientUnits="userSpaceOnUse">
<stop stop-color="#E7F1FF"/>
<stop offset="0.224" stop-color="#DCEAFF"/>
<stop offset="0.604" stop-color="#D1E3FF"/>
<stop offset="1" stop-color="#CDE0FF"/>
</linearGradient>
</defs>
</svg>
