<svg width="1000" height="1000" viewBox="0 0 1000 1000" fill="none" xmlns="http://www.w3.org/2000/svg">
<g clip-path="url(#clip0_3664_396)">
<path d="M499.5 500C499.5 416.79 566.979 349.333 650.22 349.333C733.459 349.333 800.94 416.79 800.94 500C800.94 583.211 733.459 650.666 650.22 650.666C566.979 650.666 499.5 583.211 499.5 500Z" fill="#1ABCFE"/>
<path d="M198.061 801.334C198.061 718.124 265.539 650.667 348.78 650.667H499.5V801.334C499.5 884.545 432.021 952 348.78 952C265.539 952 198.061 884.545 198.061 801.334Z" fill="#0ACF83"/>
<path d="M499.5 48.002V349.333H650.22C733.461 349.333 800.94 281.878 800.94 198.667C800.94 115.455 733.461 48.002 650.22 48.002H499.5Z" fill="#FF7262"/>
<path d="M198.061 198.667C198.061 281.878 265.539 349.333 348.78 349.333H499.5V48H348.78C265.539 48 198.061 115.457 198.061 198.667Z" fill="#F24E1E"/>
<path d="M198.061 500C198.061 583.211 265.539 650.666 348.78 650.666H499.5V349.333H348.78C265.539 349.333 198.061 416.79 198.061 500Z" fill="#A259FF"/>
</g>
<defs>
<clipPath id="clip0_3664_396">
<rect width="603" height="904" fill="white" transform="translate(198 48)"/>
</clipPath>
</defs>
</svg>
