<svg width="28" height="21" viewBox="0 0 28 21" fill="none" xmlns="http://www.w3.org/2000/svg">
<path d="M13.5172 20.2601C13.6955 20.2648 13.8714 20.2178 14.0237 20.1249C14.4721 19.8488 14.6088 19.2492 14.3389 18.8012C14.3162 18.7616 11.4974 14.0576 6.11655 11.0973H27.0345C27.567 11.0973 28 10.6643 28 10.1318C28 9.59932 27.567 9.16628 27.0345 9.16628H6.11655C11.4674 6.2229 14.3181 1.49814 14.3461 1.45083C14.6102 0.999937 14.4639 0.399867 14.0135 0.132902C13.5568 -0.137926 12.9553 0.018971 12.6826 0.478074C12.2437 1.17807 8.12869 7.45345 0.747793 9.18994C0.30607 9.29856 0 9.68525 0 10.1323C0 10.5793 0.30414 10.967 0.739588 11.0727C8.15186 12.8155 12.2529 19.099 12.6961 19.8101C12.8699 20.0887 13.1914 20.2538 13.5172 20.2601Z" fill="#999899"/>
</svg>
