<svg width="28" height="21" viewBox="0 0 28 21" fill="none" xmlns="http://www.w3.org/2000/svg">
<path d="M14.4828 20.2601C14.3045 20.2648 14.1286 20.2178 13.9763 20.1249C13.5279 19.8488 13.3912 19.2492 13.6611 18.8012C13.6838 18.7616 16.5026 14.0576 21.8834 11.0973H0.965517C0.433034 11.0973 0 10.6643 0 10.1318C0 9.59932 0.433034 9.16628 0.965517 9.16628H21.8834C16.5326 6.2229 13.6819 1.49814 13.6539 1.45083C13.3898 0.999937 13.5361 0.399867 13.9865 0.132902C14.4432 -0.137926 15.0447 0.018971 15.3174 0.478074C15.7563 1.17807 19.8713 7.45345 27.2522 9.18994C27.6939 9.29856 28 9.68525 28 10.1323C28 10.5793 27.6959 10.967 27.2604 11.0727C19.8481 12.8155 15.7471 19.099 15.3039 19.8101C15.1301 20.0887 14.8086 20.2538 14.4828 20.2601Z" fill="#999899"/>
</svg>
