<svg width="28" height="28" viewBox="0 0 28 28" fill="none" xmlns="http://www.w3.org/2000/svg">
<path d="M6.12492 4.66675H21.8749C23.8968 4.66675 25.549 6.24928 25.6606 8.24325L25.6666 8.45841V19.5417C25.6666 21.5636 24.0841 23.2159 22.0901 23.3274L21.8749 23.3334H6.12492C4.10305 23.3334 2.4508 21.7509 2.33925 19.7569L2.33325 19.5417V8.45841C2.33325 6.43654 3.91578 4.78429 5.90976 4.67275L6.12492 4.66675H21.8749H6.12492ZM23.9166 10.9352L14.4074 15.9411C14.1888 16.0561 13.9336 16.0726 13.7045 15.9904L13.5924 15.9411L4.08325 10.9364V19.5417C4.08325 20.613 4.90821 21.4915 5.95747 21.5766L6.12492 21.5834H21.8749C22.9461 21.5834 23.8246 20.7585 23.9098 19.7092L23.9166 19.5417V10.9352ZM21.8749 6.41675H6.12492C5.05372 6.41675 4.17519 7.24171 4.09002 8.29097L4.08325 8.45841V8.95891L13.9999 14.178L23.9166 8.95775V8.45841C23.9166 7.38721 23.0916 6.50869 22.0424 6.42352L21.8749 6.41675Z" fill="#999899"/>
</svg>
