<svg width="1000" height="1000" viewBox="0 0 1000 1000" fill="none" xmlns="http://www.w3.org/2000/svg">
<g clip-path="url(#clip0_3664_398)">
<path d="M345.189 215.825L227.8 312.559C253.828 441.37 239.995 586.788 134.266 721.176C202.472 679.09 288.255 645.533 391.92 643.137L570.45 496.015C514.752 384.271 432.406 289.036 345.189 215.825Z" fill="#770088"/>
<path d="M345.189 215.825L227.8 312.559C253.828 441.37 239.995 586.788 134.266 721.176C175.814 695.539 223.917 673.103 278.576 658.903L541.102 442.566C487.684 353.738 418.148 277.068 345.189 215.825Z" fill="#004CFF"/>
<path d="M345.189 215.825L227.801 312.559C250.678 425.779 242.618 551.809 168.561 671.926L508.189 392.052C460.486 324.449 403.939 265.141 345.189 215.825Z" fill="#028121"/>
<path d="M345.189 215.825L227.801 312.559C243.028 387.917 244.622 468.945 222.131 550.143L471.967 344.26C432.887 296.215 389.666 253.159 345.189 215.825Z" fill="#FFEE00"/>
<path d="M345.189 215.825L227.801 312.559C237.347 359.804 241.51 409.274 237.756 459.627L432.606 299.06C404.615 268.878 375.206 241.022 345.189 215.825Z" fill="#FF8D00"/>
<path d="M345.189 215.825L227.801 312.559C232.395 335.295 235.73 358.543 237.552 382.163L390.338 256.255C375.503 242.145 360.433 228.621 345.189 215.825Z" fill="#E50000"/>
<path d="M137.794 85C326.912 165.882 586.323 391.029 633.971 690.882C415.882 602.941 249.853 649.853 134.265 721.176C310.588 497.059 231.471 242.206 137.794 85Z" stroke="white" stroke-width="26.4706" stroke-linecap="round" stroke-linejoin="round"/>
<path d="M100.589 853.677L66.9121 789.265L934.559 733.383C866.324 795.442 778.677 845.736 690 886.912" stroke="white" stroke-width="26.4706" stroke-linecap="round" stroke-linejoin="round"/>
<path d="M412.354 189.265C560.002 234.412 766.472 452.5 836.766 686.912C798.237 671.765 769.413 656.324 715.296 670.147C662.943 479.706 569.266 297.794 412.354 189.265Z" stroke="white" stroke-width="26.4706" stroke-linecap="round" stroke-linejoin="round"/>
<path d="M0 915.147C29.4118 915.147 73.5294 853.382 125 844.559C154.412 844.559 176.471 906.323 250 915.147C301.471 915.147 323.529 853.382 375 853.382C426.471 853.382 448.529 915.147 500 915.147C551.471 915.147 573.529 853.382 625 853.382C676.471 853.382 698.529 915.147 750 915.147C801.471 915.147 823.529 853.382 875 853.382C926.471 853.382 948.529 915.147 1000 915.147" stroke="white" stroke-width="26.4706" stroke-linecap="round" stroke-linejoin="round"/>
</g>
<defs>
<clipPath id="clip0_3664_398">
<rect width="1000" height="1000" fill="white"/>
</clipPath>
</defs>
</svg>
