<svg preserveAspectRatio="none" width="100%" height="100%" overflow="visible" style="display: block;" viewBox="0 0 49 32" fill="none" xmlns="http://www.w3.org/2000/svg">
<path id="Vector" opacity="0.9" d="M0.271784 31.8363C-0.0865108 31.4802 -0.0865108 29.8183 0.247898 28.7736C0.701739 27.4441 2.56487 24.8563 3.87862 23.6929C4.92962 22.767 7.55712 21.295 8.8231 20.8914C9.03808 20.8202 9.61135 19.9655 10.0891 18.9683C11.9283 15.3121 15.4874 12.748 21.7695 10.6112C25.0658 9.49534 30.9419 8.6169 35.0981 8.6169C36.2685 8.6169 37.2479 8.52193 37.2479 8.40322C37.2479 8.30825 36.794 7.90464 36.2207 7.54852C34.907 6.67007 31.324 3.22752 30.8941 2.39656C30.5836 1.80301 30.5836 1.66056 30.9419 1.13824C31.1568 0.80586 31.6107 0.473475 31.969 0.378508C32.3034 0.307283 32.6378 0.141091 32.7094 0.0461236C32.7811 -0.0725852 33.2111 0.0461236 33.6649 0.307283C34.1187 0.568442 35.122 1.09076 35.8624 1.49437C37.5823 2.39656 43.9838 7.14491 43.8166 7.42981C43.7688 7.52478 43.8883 7.76219 44.1271 7.92839C44.4854 8.23703 44.5093 8.21329 44.1988 7.85716C44.0316 7.61974 43.9838 7.42981 44.1271 7.42981C44.4138 7.42981 44.9393 8.02335 44.7721 8.18954C44.7004 8.26077 44.8437 8.4507 45.0587 8.64064C45.4409 8.94928 45.4648 8.92554 45.1542 8.56941C44.987 8.33199 44.9393 8.14206 45.0587 8.14206C45.3453 8.14206 46.038 8.87806 46.0858 9.21044C46.1097 9.35289 46.1813 9.49534 46.253 9.56657C46.3486 9.63779 46.3247 9.54282 46.2291 9.40037C46.1336 9.23418 46.1575 9.09173 46.2769 9.09173C46.5396 9.09173 46.9935 9.56657 47.0413 9.92269C47.0651 10.0651 47.1368 10.2076 47.2085 10.2788C47.304 10.35 47.2801 10.2551 47.1607 10.0651C47.0413 9.85147 47.089 9.78024 47.304 9.85147C47.4951 9.92269 47.6145 10.1126 47.5668 10.2551C47.5429 10.3975 47.5906 10.4925 47.6862 10.4925C48.6655 10.3263 48.7372 11.7983 47.8056 12.7954C46.8024 13.8876 46.0619 14.1962 41.0697 15.6445C35.9341 17.1164 33.7604 17.4726 33.5216 16.8553C33.1394 15.8581 34.5965 14.9322 38.8005 13.484C39.8515 13.1041 40.8069 12.748 40.9025 12.6293C41.2608 12.3444 36.0774 12.1069 31.8734 12.2494C27.55 12.3918 24.5164 12.8192 21.244 13.7689C18.6643 14.5049 15.6307 15.9056 14.5319 16.879C13.6243 17.6625 12.4538 19.9417 12.8121 20.2266C12.9077 20.3216 13.7676 20.6302 14.6991 20.9151C17.5177 21.7936 19.763 23.5742 20.2647 25.3548C20.9335 27.7765 17.9955 31.409 15.3441 31.409C13.6959 31.409 11.1162 29.296 10.0174 27.0168C9.73078 26.4232 9.37248 25.3073 9.22917 24.5239C8.89476 22.8145 8.70367 22.767 6.62555 23.8591C4.16526 25.1649 2.08715 27.9902 1.75274 30.5068C1.60942 31.5514 1.51387 31.6939 1.03615 31.6227C0.940602 31.6227 0.797284 31.7176 0.725625 31.8601C0.606193 32.05 0.462875 32.0263 0.271784 31.8363ZM13.6004 29.6283C13.6004 29.5809 13.3615 29.3909 13.0749 29.2485C12.5733 28.9873 12.5494 28.9873 12.8599 29.3434C13.1704 29.7233 13.6004 29.8895 13.6004 29.6283ZM17.2311 27.9189C17.4461 27.1117 16.9445 25.9959 15.9651 25.1174C14.8663 24.144 13.051 23.2181 12.9316 23.5979C12.7405 24.0965 14.1259 26.3995 15.153 27.3491C16.2756 28.37 17.0639 28.5837 17.2311 27.9189ZM39.6126 8.30825C39.5648 8.26077 38.4183 7.38232 37.0568 6.38517C35.6952 5.36428 34.071 4.08222 33.4022 3.48868C31.754 2.04043 31.5629 2.18288 33.1872 3.67861C34.7876 5.12686 39.4454 8.64064 39.6126 8.49819C39.6604 8.42696 39.6604 8.33199 39.6126 8.30825ZM43.4583 7.33484C43.4583 7.16865 38.3944 3.34623 38.2989 3.44119C38.2511 3.51242 43.1717 7.35858 43.4105 7.40607C43.4344 7.42981 43.4583 7.38232 43.4583 7.33484Z" fill="var(--fill-0, #D77757)"/>
</svg>
