<svg preserveAspectRatio="none" width="100%" height="100%" overflow="visible" style="display: block;" viewBox="0 0 83 66" fill="none" xmlns="http://www.w3.org/2000/svg">
<g id="Vector" opacity="0.9" filter="url(#filter0_d_3740_37170)">
<path d="M17.2718 36.8363C16.9135 36.4802 16.9135 34.8183 17.2479 33.7736C17.7017 32.4441 19.5649 29.8563 20.8786 28.6929C21.9296 27.767 24.5571 26.295 25.8231 25.8914C26.0381 25.8202 26.6113 24.9655 27.0891 23.9683C28.9283 20.3121 32.4874 17.748 38.7695 15.6112C42.0658 14.4953 47.9419 13.6169 52.0981 13.6169C53.2685 13.6169 54.2479 13.5219 54.2479 13.4032C54.2479 13.3083 53.794 12.9046 53.2207 12.5485C51.907 11.6701 48.324 8.22752 47.8941 7.39656C47.5836 6.80301 47.5836 6.66056 47.9419 6.13824C48.1568 5.80586 48.6107 5.47348 48.969 5.37851C49.3034 5.30728 49.6378 5.14109 49.7094 5.04612C49.7811 4.92741 50.2111 5.04612 50.6649 5.30728C51.1187 5.56844 52.122 6.09076 52.8624 6.49437C54.5823 7.39656 60.9838 12.1449 60.8166 12.4298C60.7688 12.5248 60.8883 12.7622 61.1271 12.9284C61.4854 13.237 61.5093 13.2133 61.1988 12.8572C61.0316 12.6197 60.9838 12.4298 61.1271 12.4298C61.4138 12.4298 61.9393 13.0234 61.7721 13.1895C61.7004 13.2608 61.8437 13.4507 62.0587 13.6406C62.4409 13.9493 62.4648 13.9255 62.1542 13.5694C61.987 13.332 61.9393 13.1421 62.0587 13.1421C62.3453 13.1421 63.038 13.8781 63.0858 14.2104C63.1097 14.3529 63.1813 14.4953 63.253 14.5666C63.3486 14.6378 63.3247 14.5428 63.2291 14.4004C63.1336 14.2342 63.1575 14.0917 63.2769 14.0917C63.5396 14.0917 63.9935 14.5666 64.0413 14.9227C64.0651 15.0651 64.1368 15.2076 64.2085 15.2788C64.304 15.35 64.2801 15.2551 64.1607 15.0651C64.0413 14.8515 64.089 14.7802 64.304 14.8515C64.4951 14.9227 64.6145 15.1126 64.5668 15.2551C64.5429 15.3975 64.5906 15.4925 64.6862 15.4925C65.6655 15.3263 65.7372 16.7983 64.8056 17.7954C63.8024 18.8876 63.0619 19.1962 58.0697 20.6445C52.9341 22.1164 50.7604 22.4726 50.5216 21.8553C50.1394 20.8581 51.5965 19.9322 55.8005 18.484C56.8515 18.1041 57.8069 17.748 57.9025 17.6293C58.2608 17.3444 53.0774 17.1069 48.8734 17.2494C44.55 17.3918 41.5164 17.8192 38.244 18.7689C35.6643 19.5049 32.6307 20.9056 31.5319 21.879C30.6243 22.6625 29.4538 24.9417 29.8121 25.2266C29.9077 25.3216 30.7676 25.6302 31.6991 25.9151C34.5177 26.7936 36.763 28.5742 37.2647 30.3548C37.9335 32.7765 34.9955 36.409 32.3441 36.409C30.6959 36.409 28.1162 34.296 27.0174 32.0168C26.7308 31.4232 26.3725 30.3073 26.2292 29.5239C25.8948 27.8145 25.7037 27.767 23.6256 28.8591C21.1653 30.1649 19.0871 32.9902 18.7527 35.5068C18.6094 36.5514 18.5139 36.6939 18.0361 36.6227C17.9406 36.6227 17.7973 36.7176 17.7256 36.8601C17.6062 37.05 17.4629 37.0263 17.2718 36.8363ZM30.6004 34.6283C30.6004 34.5809 30.3615 34.3909 30.0749 34.2485C29.5733 33.9873 29.5494 33.9873 29.8599 34.3434C30.1704 34.7233 30.6004 34.8895 30.6004 34.6283ZM34.2311 32.9189C34.4461 32.1117 33.9445 30.9959 32.9651 30.1174C31.8663 29.144 30.051 28.2181 29.9316 28.5979C29.7405 29.0965 31.1259 31.3995 32.153 32.3491C33.2756 33.37 34.0639 33.5837 34.2311 32.9189ZM56.6126 13.3083C56.5648 13.2608 55.4183 12.3823 54.0568 11.3852C52.6952 10.3643 51.071 9.08222 50.4022 8.48868C48.754 7.04043 48.5629 7.18288 50.1872 8.67861C51.7876 10.1269 56.4454 13.6406 56.6126 13.4982C56.6604 13.427 56.6604 13.332 56.6126 13.3083ZM60.4583 12.3348C60.4583 12.1686 55.3944 8.34623 55.2989 8.44119C55.2511 8.51242 60.1717 12.3586 60.4105 12.4061C60.4344 12.4298 60.4583 12.3823 60.4583 12.3348Z" fill="var(--fill-0, #D77757)"/>
</g>
<defs>
<filter id="filter0_d_3740_37170" x="-1.05967e-08" y="1.50763e-09" width="82.4643" height="65.9912" filterUnits="userSpaceOnUse" color-interpolation-filters="sRGB">
<feFlood flood-opacity="0" result="BackgroundImageFix"/>
<feColorMatrix in="SourceAlpha" type="matrix" values="0 0 0 0 0 0 0 0 0 0 0 0 0 0 0 0 0 0 127 0" result="hardAlpha"/>
<feOffset dy="12"/>
<feGaussianBlur stdDeviation="8.5"/>
<feComposite in2="hardAlpha" operator="out"/>
<feColorMatrix type="matrix" values="0 0 0 0 0 0 0 0 0 0 0 0 0 0 0 0 0 0 1 0"/>
<feBlend mode="normal" in2="BackgroundImageFix" result="effect1_dropShadow_3740_37170"/>
<feBlend mode="normal" in="SourceGraphic" in2="effect1_dropShadow_3740_37170" result="shape"/>
</filter>
</defs>
</svg>
