<svg preserveAspectRatio="none" width="100%" height="100%" overflow="visible" style="display: block;" viewBox="0 0 7.36396 138.5" fill="none" xmlns="http://www.w3.org/2000/svg">
<path id="Vector 3" d="M4.18191 0.5C4.18191 0.223857 3.95805 -1.19209e-07 3.68191 0C3.40577 1.49012e-07 3.18191 0.223858 3.18191 0.5L3.68191 0.5L4.18191 0.5ZM3.32843 138.354C3.52369 138.549 3.84027 138.549 4.03554 138.354L7.21751 135.172C7.41278 134.976 7.41278 134.66 7.21751 134.464C7.02225 134.269 6.70567 134.269 6.51041 134.464L3.68198 137.293L0.853553 134.464C0.658291 134.269 0.341709 134.269 0.146446 134.464C-0.0488155 134.66 -0.0488153 134.976 0.146447 135.172L3.32843 138.354ZM3.68191 0.5L3.18191 0.5L3.18198 138H3.68198H4.18198L4.18191 0.5L3.68191 0.5Z" fill="var(--stroke-0, #999899)"/>
</svg>
