<svg preserveAspectRatio="none" width="100%" height="100%" overflow="visible" style="display: block;" viewBox="0 0 157.962 116.5" fill="none" xmlns="http://www.w3.org/2000/svg">
<path id="Vector 2" d="M157.501 0.998463C157.777 0.976648 157.982 0.735806 157.96 0.460527C157.939 0.185247 157.698 -0.0202265 157.422 0.00158811L157.462 0.500026L157.501 0.998463ZM2.54334 116.274C2.69441 116.505 3.00426 116.57 3.23542 116.419L7.0023 113.957C7.23346 113.806 7.29838 113.496 7.14731 113.265C6.99624 113.034 6.68638 112.969 6.45523 113.12L3.10689 115.308L0.9186 111.96C0.76753 111.728 0.457676 111.664 0.226521 111.815C-0.00463343 111.966 -0.0695553 112.276 0.0815144 112.507L2.54334 116.274ZM157.462 0.500026L157.422 0.00158811C135.278 1.75645 100.978 9.64894 69.9984 27.6301C39.012 45.6153 11.31 73.7187 2.47251 115.897L2.96188 116L3.45125 116.103C12.2138 74.2814 39.6784 46.3848 70.5004 28.495C101.329 10.6011 135.479 2.7436 157.501 0.998463L157.462 0.500026Z" fill="var(--stroke-0, #999899)"/>
</svg>
